<svg xmlns="http://www.w3.org/2000/svg" viewBox="0 0 128 128" role="img" aria-label="Katy and Drew monogram">
  <defs>
    <linearGradient id="bg" x1="0%" y1="0%" x2="100%" y2="100%">
      <stop offset="0%" stop-color="#8aa6f6" />
      <stop offset="55%" stop-color="#b693eb" />
      <stop offset="100%" stop-color="#f4b7a1" />
    </linearGradient>
    <linearGradient id="shine" x1="0%" y1="0%" x2="100%" y2="100%">
      <stop offset="0%" stop-color="#ffffff" stop-opacity="0.9" />
      <stop offset="100%" stop-color="#ffffff" stop-opacity="0.35" />
    </linearGradient>
  </defs>
  <rect width="128" height="128" rx="34" fill="url(#bg)" />
  <circle cx="100" cy="28" r="18" fill="#ffffff" fill-opacity="0.14" />
  <path
    d="M28 94c10-16 18-29 24-40l8 15 18-35 22 60"
    fill="none"
    stroke="url(#shine)"
    stroke-linecap="round"
    stroke-linejoin="round"
    stroke-width="7"
  />
  <path d="M36 92V34h11v28l23-28h14L60 63l26 29H72L47 65v27H36Z" fill="#ffffff" />
  <path
    d="M77 92V34h15c9 0 16 2 21 7 5 4 7 11 7 19 0 10-3 18-9 23-6 6-15 9-26 9H77Zm11-10h6c8 0 14-2 18-6 4-4 6-10 6-17 0-5-1-9-3-12-2-3-4-5-8-7-3-1-8-2-14-2h-5v44Z"
    fill="#ffffff"
    fill-opacity="0.92"
  />
</svg>
